# xmcd
#
# Track frame offsets:
#	150
#	16326
#	32519
#	52742
#	66439
#	79823
#	92223
#	110250
#	128577
#	147817
#	162431
#
# Disc length: 2380 seconds
#
# Revision: 0
# Processed by: cddbd v1.4PL0 Copyright (c) Steve Scherf et al.
# Submitted via: EasyCDDAExtractor 4.5.2.1
#
DISCID=86094a0b
DTITLE=Santos Chavez - Mi vida
DYEAR=2001
DGENRE=Latina
TTITLE0=Mi vida
TTITLE1=Para no empezar a olvidarte
TTITLE2=Dicen
TTITLE3=Vida mia
TTITLE4=De que sirve la vida
TTITLE5=Deja
TTITLE6=Me duele el corazon
TTITLE7=Necesito saber
TTITLE8=Ramito de violeta
TTITLE9=Evitame
TTITLE10=Mi vida (version acustica)
EXTD=
EXTT0=
EXTT1=
EXTT2=
EXTT3=
EXTT4=
EXTT5=
EXTT6=
EXTT7=
EXTT8=
EXTT9=
EXTT10=
PLAYORDER=
